<?xml version="1.0" encoding="utf-8"?>
<!-- Generator: Adobe Illustrator 26.5.0, SVG Export Plug-In . SVG Version: 6.00 Build 0)  -->
<svg version="1.1" id="Camada_1" xmlns="http://www.w3.org/2000/svg" xmlns:xlink="http://www.w3.org/1999/xlink" x="0px" y="0px"
	 viewBox="0 0 500 500" style="enable-background:new 0 0 500 500;" xml:space="preserve">
<style type="text/css">
	.st0{fill:#13B8A8;}
	.st1{fill:#FEF6DD;}
</style>
<path class="st0" d="M25.26,122.16v267.96c0,0,1.1,49.72,39.23,51.93c38.12,2.21,327.07,0,327.07,0s29.83,2.76,45.86-53.04
	c11.6-56.91,32.04-181.77,32.04-181.77s6.08-39.78-25.41-41.44l-7.18-0.55l1.66-46.96c0,0-9.94-33.15-34.81-38.67
	c1.66-11.6-11.6-24.31-23.76-24.31s-80.66,0-80.66,0s-19.34,1.1-21.55,22.65c-33.15,0.55-208.84,1.1-208.84,1.1
	S29.68,80.17,25.26,122.16z"/>
<path class="st1" d="M50.68,195.09v-46.41c0,0,5.52-20.44,18.23-21.55s208.29,0,208.29,0s0-21.55,18.78-23.2
	c18.78-1.66,86.19,0,86.19,0s20.44,2.76,21.55,23.76c18.23,6.08,32.04,22.65,33.15,37.57c-33.7,0.55-345.3,0-345.3,0
	S66.15,169.68,50.68,195.09z"/>
<path class="st1" d="M216.97,243.07v38.21h-39.78c0,0-16.57,3.87-17.13,19.89c-0.55,16.02,12.15,23.2,17.68,23.76s39.23,0,39.23,0
	v39.23c0,0,1.66,15.47,20.99,16.02c19.34,0.55,20.99-18.23,20.99-18.23v-37.57l38.67-0.55c0,0,18.78-6.08,18.78-20.99
	s-9.94-19.89-17.68-20.99c-7.73-1.1-40.88,0-40.88,0l0.55-38.76c0,0-1.12-19.82-20.17-19.25
	C219.74,224.37,216.97,243.07,216.97,243.07z"/>
</svg>
